<svg xmlns="http://www.w3.org/2000/svg" viewBox="0 0 311.95 335.2"><defs><style>.cls-1{fill:#754c1f;}.cls-2{fill:#ead39b;}.cls-3{fill:#fc7e05;}.cls-4{fill:#f7ac2d;}</style></defs><g id="Layer_4" data-name="Layer 4"><path class="cls-1" d="M343.25,308.54a27.9,27.9,0,0,0-5.79.62L103.3,334.24v94.95l240-25.7c19.89,0,36-21.25,36-47.47S363.14,308.54,343.25,308.54Z" transform="translate(-67.3 -94)"/><ellipse class="cls-2" cx="36" cy="287.72" rx="36" ry="47.48"/></g><g id="Layer_2" data-name="Layer 2"><path class="cls-3" d="M224.64,350.43c60.38-1.18,89.1-35.64,95-75.24s-10.84-41.18-2.51-86.36c7.11-38.52,12.74-40.52,12.74-40.52S311.09,163.16,303.17,179c-4.17,8.35-9.39,24.26-7.83,41.42,1.29,14.24,1.2,31.91-1.56,36.58-5.54,9.38-25.56-6.78-27.65-52.17-.82-17.83,15.93-38.55,16.92-49.45s4-21.78-3-31.68c-2,12.87-6.93,36.63-18.81,48.52s-17.82,40.59-15.84,52.47-16.83,19.8-15.84-3,6.54-19.76,8.91-42.57c1.33-12.84,1-30.7-8.91-45.55s-3-31.68,4-39.6c-21.79,12.87-19.71,31.06-18.81,34.91,6.57,28.08,9.27,34.91.52,62.61-3.13,9.91-2.09,25.57-23,33.39-16.91,6.35-3.31-26-3.31-43.78s-5-30.7-12.87-39.61c4.95,22.78,1,59.41-6.93,68.32s-9.9,27.72-5.94,39.6-5.94,25.75-15.84,11.89-5.94-32.68,0-50.5,0-40.59,0-40.59-4,34.65-11.88,48.51-13.86,54.46-2,77.23S174.14,351.42,224.64,350.43Z" transform="translate(-67.3 -94)"/></g><g id="Layer_3" data-name="Layer 3"><path class="cls-4" d="M222.91,350.46c-46.58-1.57-55.65-35.72-58.43-56.59,10.43,12.52,29.22,22.1,29.22,5.56,0-38.95-14.61-39.65-18.09-57.73,11.13,9,28.16,20.69,34.78,6.26,5.61-12.22,6.26-28.53,6.26-28.53s.7,50.48,17.39,56.35c21.46,7.55,23-26.43,23-26.43s-3.85,30.84,21.91,35.52c20.35,3.7,28.18-17.44,28.18-17.44s11,45.74-29.27,70.17C270.94,341.74,250.74,351.39,222.91,350.46Z" transform="translate(-67.3 -94)"/></g></svg>